<svg width="99" height="87" viewBox="0 0 99 87" fill="none" xmlns="http://www.w3.org/2000/svg">
<path d="M34.5 29.6825L35.4338 30.0402L35.4338 30.0402L34.5 29.6825ZM55 19.1825L54.0411 19.4662L54.0411 19.4662L55 19.1825ZM0 21.6826L11.3103 19.3566L3.64079 10.7246L0 21.6826ZM2.85858 20.4804C3.27337 20.1158 3.314 19.4839 2.94935 19.0691C2.58469 18.6543 1.95283 18.6137 1.53805 18.9784L2.19832 19.7294L2.85858 20.4804ZM6.05533 15.1201C5.62952 15.4719 5.56945 16.1022 5.92117 16.528C6.27288 16.9538 6.90319 17.0139 7.329 16.6622L6.69217 15.8911L6.05533 15.1201ZM11.9287 13.0208C12.3695 12.6881 12.4571 12.061 12.1243 11.6202C11.7916 11.1794 11.1645 11.0918 10.7237 11.4246L11.3262 12.2227L11.9287 13.0208ZM15.5836 7.96671C15.1238 8.27269 14.9992 8.89346 15.3051 9.35323C15.6111 9.81301 16.2319 9.93769 16.6917 9.63171L16.1376 8.79921L15.5836 7.96671ZM21.6595 6.5965C22.1429 6.32934 22.3181 5.72091 22.051 5.23755C21.7838 4.75418 21.1754 4.57892 20.692 4.84608L21.1757 5.72129L21.6595 6.5965ZM26.119 2.23045C25.6072 2.43815 25.3608 3.02137 25.5684 3.53311C25.7761 4.04486 26.3594 4.29134 26.8711 4.08364L26.495 3.15705L26.119 2.23045ZM32.3306 2.3883C32.8716 2.27725 33.2201 1.74866 33.1091 1.20765C32.998 0.666647 32.4694 0.318102 31.9284 0.429154L32.1295 1.40873L32.3306 2.3883ZM38.0818 0.00354775C37.5315 -0.0425068 37.048 0.366315 37.0019 0.916676C36.9559 1.46704 37.3647 1.95053 37.9151 1.99658L37.9985 1.00006L38.0818 0.00354775ZM43.1964 3.4649C43.6891 3.71431 44.2908 3.51704 44.5402 3.02428C44.7896 2.53152 44.5923 1.92987 44.0996 1.68046L43.648 2.57268L43.1964 3.4649ZM49.0322 5.46939C48.6578 5.06341 48.0252 5.03782 47.6192 5.41225C47.2132 5.78667 47.1876 6.41932 47.562 6.82531L48.2971 6.14735L49.0322 5.46939ZM50.8153 11.4497C51.0802 11.9343 51.6879 12.1124 52.1724 11.8474C52.657 11.5825 52.8351 10.9748 52.5701 10.4903L51.6927 10.97L50.8153 11.4497ZM55.0215 16.0239C54.8349 15.5041 54.2623 15.234 53.7425 15.4206C53.2227 15.6072 52.9525 16.1798 53.1391 16.6996L54.0803 16.3618L55.0215 16.0239ZM54.7739 22.2291C54.8995 22.7669 55.4373 23.1011 55.9751 22.9755C56.5129 22.8499 56.8471 22.3121 56.7215 21.7743L55.7477 22.0017L54.7739 22.2291ZM57.6651 27.6465C57.6204 27.096 57.138 26.686 56.5875 26.7307C56.037 26.7754 55.627 27.2579 55.6717 27.8083L56.6684 27.7274L57.6651 27.6465ZM55.5685 33.3818C55.4959 33.9293 55.8808 34.432 56.4283 34.5047C56.9758 34.5773 57.4785 34.1924 57.5512 33.6449L56.5599 33.5133L55.5685 33.3818ZM55.8839 39.492C56.1197 38.9926 55.906 38.3966 55.4066 38.1607C54.9072 37.9249 54.3112 38.1386 54.0754 38.638L54.9796 39.065L55.8839 39.492ZM50.8721 42.929C50.4544 43.2903 50.4087 43.9218 50.77 44.3395C51.1313 44.7572 51.7629 44.8029 52.1805 44.4416L51.5263 43.6853L50.8721 42.929ZM46.667 47.3082C47.2032 47.1758 47.5305 46.6338 47.398 46.0976C47.2656 45.5614 46.7236 45.2341 46.1874 45.3666L46.4272 46.3374L46.667 47.3082ZM40.9355 45.3521C40.4012 45.2121 39.8547 45.5317 39.7147 46.066C39.5747 46.6002 39.8943 47.1468 40.4285 47.2868L40.682 46.3195L40.9355 45.3521ZM35.0247 44.0673C35.3965 44.4757 36.029 44.5054 36.4374 44.1336C36.8457 43.7618 36.8754 43.1293 36.5036 42.7209L35.7642 43.3941L35.0247 44.0673ZM34.3161 38.0628C34.2272 37.5177 33.7133 37.1479 33.1682 37.2367C32.6231 37.3256 32.2533 37.8395 32.3421 38.3846L33.3291 38.2237L34.3161 38.0628ZM32.658 32.2398C32.5305 32.7771 32.8629 33.3161 33.4003 33.4435C33.9377 33.5709 34.4766 33.2385 34.604 32.7011L33.631 32.4704L32.658 32.2398ZM36.6279 27.2439C36.8641 26.7447 36.6509 26.1485 36.1517 25.9123C35.6524 25.6761 35.0563 25.8893 34.82 26.3885L35.7239 26.8162L36.6279 27.2439ZM37.9686 20.8988C37.6563 21.3543 37.7724 21.9767 38.2279 22.289C38.6834 22.6013 39.3059 22.4851 39.6181 22.0296L38.7933 21.4642L37.9686 20.8988ZM43.4246 17.358C43.8079 16.9604 43.7963 16.3273 43.3987 15.944C43.0011 15.5607 42.3681 15.5722 41.9848 15.9698L42.7047 16.6639L43.4246 17.358ZM46.7539 11.7878C46.3097 12.116 46.2155 12.7421 46.5436 13.1863C46.8717 13.6306 47.4978 13.7248 47.9421 13.3967L47.348 12.5923L46.7539 11.7878ZM53.0671 10.2362C53.5596 9.98643 53.7564 9.38463 53.5066 8.89206C53.2568 8.3995 52.655 8.20269 52.1625 8.45248L52.6148 9.34436L53.0671 10.2362ZM58.0431 6.05894C57.5161 6.22416 57.2228 6.78531 57.388 7.3123C57.5532 7.8393 58.1144 8.13257 58.6414 7.96735L58.3422 7.01315L58.0431 6.05894ZM64.5096 6.65142C65.0567 6.57614 65.4392 6.07157 65.3639 5.52445C65.2886 4.97732 64.7841 4.59481 64.2369 4.67009L64.3733 5.66076L64.5096 6.65142ZM70.5914 4.34898C70.0395 4.32833 69.5753 4.759 69.5547 5.3109C69.534 5.86279 69.9647 6.32693 70.5166 6.34758L70.554 5.34828L70.5914 4.34898ZM76.461 7.12339C76.9993 7.24671 77.5357 6.91027 77.659 6.37193C77.7824 5.83359 77.4459 5.2972 76.9076 5.17388L76.6843 6.14864L76.461 7.12339ZM82.9535 7.22864C82.4524 6.99646 81.858 7.21446 81.6258 7.71557C81.3936 8.21668 81.6116 8.81113 82.1127 9.04331L82.5331 8.13598L82.9535 7.22864ZM87.1858 12.143C87.6196 12.4848 88.2484 12.4101 88.5901 11.9762C88.9318 11.5423 88.8571 10.9136 88.4232 10.5718L87.8045 11.3574L87.1858 12.143ZM92.9347 15.1388C92.599 14.7003 91.9713 14.617 91.5328 14.9528C91.0943 15.2886 91.0111 15.9162 91.3468 16.3547L92.1408 15.7467L92.9347 15.1388ZM94.3337 21.4654C94.5523 21.9725 95.1407 22.2064 95.6479 21.9877C96.155 21.769 96.3889 21.1806 96.1702 20.6735L95.2519 21.0694L94.3337 21.4654ZM98.0298 26.821C97.9276 26.2782 97.4048 25.9211 96.862 26.0233C96.3193 26.1254 95.9621 26.6483 96.0643 27.191L97.047 27.006L98.0298 26.821ZM96.6133 33.1253C96.6161 33.6775 97.0661 34.123 97.6183 34.1202C98.1706 34.1174 98.6161 33.6675 98.6133 33.1152L97.6133 33.1202L96.6133 33.1253ZM98.1668 39.4314C98.2442 38.8846 97.8637 38.3785 97.3169 38.3011C96.7701 38.2236 96.264 38.6042 96.1865 39.151L97.1767 39.2912L98.1668 39.4314ZM94.9714 45.1172C94.8312 45.6514 95.1505 46.1981 95.6847 46.3383C96.2189 46.4785 96.7656 46.1592 96.9058 45.625L95.9386 45.3711L94.9714 45.1172ZM95.0192 51.6238C95.2083 51.1049 94.941 50.5309 94.4221 50.3418C93.9032 50.1527 93.3292 50.4201 93.1401 50.9389L94.0797 51.2814L95.0192 51.6238ZM90.8301 56.5844C90.6025 57.0876 90.8259 57.68 91.329 57.9077C91.8322 58.1353 92.4247 57.9119 92.6523 57.4087L91.7412 56.9966L90.8301 56.5844ZM89.907 62.9931C90.1656 62.5051 89.9795 61.8999 89.4915 61.6414C89.0034 61.3828 88.3982 61.5689 88.1397 62.0569L89.0234 62.525L89.907 62.9931ZM85.1335 67.3794C84.8497 67.8532 85.0037 68.4673 85.4775 68.7511C85.9513 69.0349 86.5654 68.8809 86.8492 68.4071L85.9914 67.8933L85.1335 67.3794ZM83.5178 73.6875C83.8227 73.227 83.6966 72.6065 83.2361 72.3016C82.7756 71.9967 82.1552 72.1228 81.8503 72.5833L82.6841 73.1354L83.5178 73.6875ZM78.31 77.7025C77.9872 78.1506 78.0887 78.7756 78.5368 79.0984C78.9849 79.4212 79.6099 79.3197 79.9327 78.8716L79.1214 78.287L78.31 77.7025ZM76.2592 83.79C76.597 83.353 76.5165 82.725 76.0796 82.3872C75.6426 82.0495 75.0145 82.13 74.6768 82.5669L75.468 83.1785L76.2592 83.79ZM6.69217 15.8911L7.329 16.6622C8.79897 15.448 10.3385 14.2212 11.9287 13.0208L11.3262 12.2227L10.7237 11.4246C9.10627 12.6455 7.54363 13.8908 6.05533 15.1201L6.69217 15.8911ZM16.1376 8.79921L16.6917 9.63171C18.3254 8.54449 19.9872 7.52082 21.6595 6.5965L21.1757 5.72129L20.692 4.84608C18.9643 5.80103 17.2553 6.85418 15.5836 7.96671L16.1376 8.79921ZM26.495 3.15705L26.8711 4.08364C28.7169 3.33452 30.5441 2.75501 32.3306 2.3883L32.1295 1.40873L31.9284 0.429154C30.0008 0.824831 28.0556 1.44446 26.119 2.23045L26.495 3.15705ZM37.9985 1.00006L37.9151 1.99658C39.7602 2.15099 41.528 2.62048 43.1964 3.4649L43.648 2.57268L44.0996 1.68046C42.183 0.710419 40.1622 0.177636 38.0818 0.00354775L37.9985 1.00006ZM48.2971 6.14735L47.562 6.82531C48.7154 8.07586 49.8062 9.60422 50.8153 11.4497L51.6927 10.97L52.5701 10.4903C51.4932 8.52069 50.3102 6.85507 49.0322 5.46939L48.2971 6.14735ZM54.0803 16.3618L53.1391 16.6996C53.4534 17.5753 53.7544 18.4969 54.0411 19.4662L55 19.1825L55.9589 18.8989C55.6621 17.8953 55.3494 16.9374 55.0215 16.0239L54.0803 16.3618ZM55 19.1825L54.0411 19.4662C54.3218 20.4154 54.5654 21.3363 54.7739 22.2291L55.7477 22.0017L56.7215 21.7743C56.5038 20.8422 56.2502 19.8838 55.9589 18.8989L55 19.1825ZM56.6684 27.7274L55.6717 27.8083C55.8382 29.8599 55.7897 31.715 55.5685 33.3818L56.5599 33.5133L57.5512 33.6449C57.7927 31.8241 57.842 29.8259 57.6651 27.6465L56.6684 27.7274ZM54.9796 39.065L54.0754 38.638C53.2318 40.4244 52.1249 41.8453 50.8721 42.929L51.5263 43.6853L52.1805 44.4416C53.6502 43.1703 54.9248 41.523 55.8839 39.492L54.9796 39.065ZM46.4272 46.3374L46.1874 45.3666C44.4134 45.8048 42.5974 45.7876 40.9355 45.3521L40.682 46.3195L40.4285 47.2868C42.4204 47.8088 44.5757 47.8248 46.667 47.3082L46.4272 46.3374ZM35.7642 43.3941L36.5036 42.7209C35.4175 41.5279 34.6277 39.9742 34.3161 38.0628L33.3291 38.2237L32.3421 38.3846C32.7147 40.6697 33.672 42.5816 35.0247 44.0673L35.7642 43.3941ZM33.631 32.4704L34.604 32.7011C34.8044 31.8558 35.0783 30.9686 35.4338 30.0402L34.5 29.6825L33.5661 29.3249C33.1811 30.3303 32.8802 31.3023 32.658 32.2398L33.631 32.4704ZM34.5 29.6825L35.4338 30.0402C35.8022 29.0782 36.201 28.1461 36.6279 27.2439L35.7239 26.8162L34.82 26.3885C34.3713 27.3369 33.9526 28.3157 33.5661 29.3249L34.5 29.6825ZM38.7933 21.4642L39.6181 22.0296C40.7807 20.3338 42.0567 18.7768 43.4246 17.358L42.7047 16.6639L41.9848 15.9698C40.5406 17.4678 39.1944 19.1107 37.9686 20.8988L38.7933 21.4642ZM47.348 12.5923L47.9421 13.3967C49.579 12.1878 51.2959 11.1344 53.0671 10.2362L52.6148 9.34436L52.1625 8.45248C50.2938 9.40015 48.4818 10.5117 46.7539 11.7878L47.348 12.5923ZM58.3422 7.01315L58.6414 7.96735C60.5777 7.3603 62.5436 6.92193 64.5096 6.65142L64.3733 5.66076L64.2369 4.67009C62.1605 4.9558 60.0857 5.41857 58.0431 6.05894L58.3422 7.01315ZM70.554 5.34828L70.5166 6.34758C72.5444 6.42344 74.5371 6.68266 76.461 7.12339L76.6843 6.14864L76.9076 5.17388C74.8573 4.70422 72.74 4.42936 70.5914 4.34898L70.554 5.34828ZM82.5331 8.13598L82.1127 9.04331C83.9274 9.88411 85.6304 10.9181 87.1858 12.143L87.8045 11.3574L88.4232 10.5718C86.7399 9.24603 84.9027 8.13175 82.9535 7.22864L82.5331 8.13598ZM92.1408 15.7467L91.3468 16.3547C92.5165 17.8822 93.5231 19.5854 94.3337 21.4654L95.2519 21.0694L96.1702 20.6735C95.2947 18.643 94.2047 16.7972 92.9347 15.1388L92.1408 15.7467ZM97.047 27.006L96.0643 27.191C96.4126 29.0413 96.6027 31.0191 96.6133 33.1253L97.6133 33.1202L98.6133 33.1152C98.6021 30.8948 98.4016 28.7962 98.0298 26.821L97.047 27.006ZM97.1767 39.2912L96.1865 39.151C95.9169 41.0545 95.5157 43.0433 94.9714 45.1172L95.9386 45.3711L96.9058 45.625C97.4686 43.4809 97.8857 41.4162 98.1668 39.4314L97.1767 39.2912ZM94.0797 51.2814L93.1401 50.9389C92.475 52.7641 91.707 54.6459 90.8301 56.5844L91.7412 56.9966L92.6523 57.4087C93.5488 55.427 94.336 53.4986 95.0192 51.6238L94.0797 51.2814ZM89.0234 62.525L88.1397 62.0569C87.2213 63.7906 86.2205 65.5648 85.1335 67.3794L85.9914 67.8933L86.8492 68.4071C87.9534 66.5639 88.9715 64.7592 89.907 62.9931L89.0234 62.525ZM82.6841 73.1354L81.8503 72.5833C80.7413 74.2582 79.562 75.9646 78.31 77.7025L79.1214 78.287L79.9327 78.8716C81.1996 77.1132 82.3938 75.3851 83.5178 73.6875L82.6841 73.1354ZM75.468 83.1785L74.6768 82.5669C74.04 83.3909 73.3873 84.2214 72.7187 85.0585L73.5 85.6826L74.2813 86.3068C74.9566 85.4614 75.6158 84.6225 76.2592 83.79L75.468 83.1785Z" fill="black"/>
</svg>
