<svg width="31" height="31" viewBox="0 0 31 31" fill="none" xmlns="http://www.w3.org/2000/svg">
<g clip-path="url(#clip0_127_2732)">
<path d="M28.4166 9.98439C27.2824 8.84341 25.8213 8.08367 24.2359 7.81056C22.6504 7.53745 21.0193 7.7645 19.5687 8.46022C18.3719 9.04507 17.3514 9.93639 16.6108 11.0436L11.7412 18.0831C11.3199 18.7367 10.7371 19.2706 10.0491 19.6331C9.29335 19.9874 8.45481 20.1275 7.62492 20.038C6.79502 19.9485 6.00561 19.6329 5.34274 19.1257C4.67986 18.6184 4.16895 17.9389 3.86569 17.1612C3.56244 16.3836 3.47848 15.5376 3.62296 14.7155C3.76744 13.8934 4.13482 13.1267 4.68506 12.499C5.2353 11.8713 5.94728 11.4068 6.7434 11.1559C7.53952 10.905 8.38922 10.8775 9.1999 11.0764C10.0106 11.2752 10.7511 11.6928 11.3408 12.2836C11.644 12.5867 12.0552 12.7571 12.4839 12.7571C12.9127 12.7571 13.3239 12.5867 13.627 12.2836C13.9302 11.9804 14.1005 11.5692 14.1005 11.1404C14.1005 10.7117 13.9302 10.3005 13.627 9.9973C12.5452 8.89075 11.157 8.1334 9.64095 7.82277C8.12496 7.51215 6.55068 7.66249 5.12087 8.25442C3.69106 8.84635 2.4712 9.85277 1.61839 11.1441C0.765576 12.4354 0.318866 13.9524 0.335791 15.4998C0.335791 17.5552 1.15231 19.5265 2.60571 20.9799C4.05912 22.4333 6.03036 23.2498 8.08579 23.2498C9.23804 23.2468 10.3756 22.991 11.4183 22.5006C12.613 21.9127 13.6329 21.022 14.3762 19.9173L19.2587 12.9165C19.6754 12.259 20.2594 11.724 20.9508 11.3665C21.7066 11.0122 22.5451 10.8721 23.375 10.9616C24.2049 11.0511 24.9943 11.3667 25.6572 11.8739C26.3201 12.3812 26.831 13.0607 27.1342 13.8384C27.4375 14.616 27.5214 15.462 27.377 16.2841C27.2325 17.1062 26.8651 17.8729 26.3149 18.5006C25.7646 19.1283 25.0526 19.5928 24.2565 19.8437C23.4604 20.0946 22.6107 20.1221 21.8 19.9232C20.9893 19.7244 20.2488 19.3068 19.6591 18.7161C19.3523 18.4402 18.9515 18.2922 18.5391 18.3026C18.1266 18.313 17.7337 18.4808 17.4411 18.7718C17.1486 19.0627 16.9785 19.4546 16.9658 19.867C16.9531 20.2794 17.0987 20.681 17.3729 20.9894C18.8322 22.4539 20.8136 23.2787 22.8811 23.2823C24.9485 23.2859 26.9328 22.4681 28.3973 21.0088C29.8617 19.5494 30.6865 17.5681 30.6902 15.5006C30.6938 13.4331 29.876 11.4489 28.4166 9.98439Z" fill="white"/>
</g>
<defs>
<clipPath id="clip0_127_2732">
<rect width="31" height="31" fill="white"/>
</clipPath>
</defs>
</svg>
