<?xml version="1.0" encoding="UTF-8"?>
<svg id="Layer_1" data-name="Layer 1" xmlns="http://www.w3.org/2000/svg" viewBox="0 0 286.92 179.52">
  <defs>
    <style>
      .cls-1 {
        fill: #2d2dd0;
      }

      .cls-2 {
        fill: #25d8b5;
      }
    </style>
  </defs>
  <path class="cls-1" d="M122.39,0H9.88C4.43,0,0,4.43,0,9.88v56.25C0,70.71,2.97,74.77,7.33,76.16l60.74,19.35.22.06s.05.01.08.03c.08.03.16.05.23.08.09.04.18.06.27.1.12.04.23.09.34.14.1.04.19.08.29.13.13.06.26.12.39.19.52.26,1.01.57,1.47.91.05.04.12.08.17.13.09.06.17.13.26.21.1.08.21.18.31.27.03.03.05.05.08.08.08.06.14.13.22.21.04.03.08.06.12.12.09.09.18.18.27.29.09.09.18.19.26.29.35.39.65.8.93,1.25.06.09.12.18.17.27s.1.18.16.27c.06.12.13.23.19.36.06.12.12.25.18.36.06.12.12.25.17.36h0c.05.13.1.26.14.38.05.13.09.26.14.39.04.13.08.26.12.39.04.13.08.26.1.4.03.1.05.22.08.32,0,.04.01.08.03.13.03.12.05.23.06.36.03.12.04.22.05.34,0,.06.01.12.03.18,0,.09.03.17.03.26,0,.13.01.27.03.42v.42c0,.55-.04,1.1-.13,1.66l-6.79,45.88c-.78,5.23-5.27,8.99-10.41,8.99-.52,0-1.04-.04-1.56-.12-5.75-.86-9.72-6.2-8.88-11.95l4.87-32.94c.35-2.4-1.08-4.7-3.39-5.42l-40.22-12.81c-4.53-1.44-9.15,1.93-9.15,6.68v63.41c0,5.81,4.71,10.53,10.53,10.53h112.51c5.45,0,9.88-4.43,9.88-9.88v-58.32c0-4.58-2.97-8.64-7.33-10.03l-60.74-19.34-.22-.06s-.06-.03-.1-.04c-.08-.03-.14-.05-.22-.06-.09-.03-.18-.06-.27-.1-.12-.04-.23-.09-.34-.14-.1-.04-.19-.08-.29-.13-.26-.12-.51-.25-.74-.38-.13-.06-.26-.14-.38-.22-.14-.09-.29-.18-.43-.29-.12-.08-.25-.17-.36-.26s-.23-.18-.34-.27c-.01,0-.03-.03-.05-.04-.09-.08-.18-.16-.27-.23-.03-.03-.05-.05-.08-.08-.1-.09-.21-.18-.3-.29-.12-.1-.22-.22-.32-.32-.09-.1-.18-.19-.27-.3-.39-.44-.73-.92-1.04-1.41-.06-.1-.12-.21-.18-.31-.01-.03-.03-.05-.05-.08-.06-.1-.12-.22-.17-.32-.06-.12-.12-.23-.17-.35,0-.01-.01-.04-.03-.05-.05-.12-.1-.22-.14-.34-.05-.13-.1-.25-.16-.38h0c-.05-.13-.09-.25-.13-.38-.04-.13-.08-.26-.12-.39-.08-.25-.13-.49-.18-.75,0-.03-.01-.05-.01-.08-.01-.08-.04-.17-.05-.26-.01-.08-.03-.16-.04-.23,0-.06-.03-.14-.03-.21,0-.05-.01-.1-.01-.17-.01-.1-.03-.19-.03-.29,0-.13-.03-.27-.03-.4v-.4c0-.29,0-.57.03-.86.01-.25.05-.49.08-.74,0-.03,0-.06.01-.09l6.79-45.87c.84-5.75,6.2-9.72,11.95-8.88,5.75.86,9.73,6.2,8.88,11.95l-4.87,32.94c-.35,2.4,1.08,4.7,3.39,5.42l40.22,12.81c4.53,1.44,9.15-1.93,9.15-6.68V10.53c0-5.81-4.71-10.53-10.53-10.53h-.01Z"/>
  <path class="cls-2" d="M211.3,104.73c0-.09.01-.17.03-.26l.03-.18c0-.12.03-.22.05-.34.01-.12.04-.25.06-.36,0-.04.01-.08.03-.13.03-.1.05-.22.08-.32.03-.13.06-.27.1-.4s.08-.26.12-.39c.04-.13.08-.26.14-.39.04-.13.09-.25.14-.36h0c.05-.14.1-.26.17-.38.05-.13.12-.25.18-.36.06-.12.12-.25.19-.36.05-.09.1-.18.16-.27s.1-.18.17-.27c.27-.44.58-.86.93-1.25.08-.1.17-.19.26-.29.09-.1.18-.19.27-.29l.12-.12c.08-.08.14-.14.22-.21.03-.03.05-.05.08-.08.1-.09.21-.18.31-.27.08-.08.17-.14.26-.21.05-.05.1-.09.17-.13.45-.34.95-.65,1.47-.91.13-.06.26-.13.39-.19.09-.05.19-.09.29-.13.12-.05.22-.09.34-.14.09-.04.18-.06.27-.1.08-.03.16-.05.23-.08.03,0,.05-.03.08-.03l.22-.06,60.74-19.35c4.37-1.39,7.33-5.45,7.33-10.03V9.88c0-5.45-4.43-9.88-9.88-9.88h-112.51c-5.81,0-10.53,4.71-10.53,10.53v61.34c0,4.75,4.62,8.14,9.15,6.68l40.22-12.81c2.31-.74,3.74-3.04,3.39-5.42l-4.87-32.94c-.86-5.75,3.13-11.11,8.88-11.95s11.11,3.13,11.95,8.88l6.79,45.87s0,.06.01.09c.04.25.06.49.08.74.03.29.04.57.03.86v.4c0,.14-.01.27-.03.4,0,.1-.01.19-.03.29,0,.05,0,.1-.01.17,0,.06-.01.14-.03.21-.01.08-.03.16-.04.23,0,.08-.03.17-.05.26,0,.03,0,.05-.01.08-.05.25-.1.51-.18.75-.04.13-.08.26-.12.39s-.08.25-.13.38h0c-.05.13-.09.25-.16.38-.04.12-.09.23-.14.34,0,.01-.01.04-.03.05-.05.12-.1.23-.17.35-.05.1-.12.22-.17.32-.01.03-.03.05-.05.08-.05.1-.12.21-.18.31-.3.49-.65.97-1.04,1.41-.08.1-.18.21-.27.3-.1.12-.21.22-.32.32-.09.1-.19.19-.3.29-.03.03-.05.05-.08.08-.09.08-.18.16-.27.23-.01.01-.03.03-.05.04l-.35.27c-.12.09-.23.18-.36.26-.14.1-.29.19-.43.29-.13.08-.25.16-.38.22-.25.14-.49.26-.74.38-.09.05-.19.09-.29.13-.12.05-.22.09-.34.14-.09.04-.18.06-.27.1-.06.03-.14.05-.22.06-.03.01-.06.03-.1.04l-.22.06-60.74,19.34c-4.37,1.39-7.33,5.45-7.33,10.03v58.32c0,5.45,4.43,9.88,9.88,9.88h112.51c5.81,0,10.53-4.71,10.53-10.53v-63.41c0-4.75-4.62-8.14-9.15-6.68l-40.22,12.81c-2.31.74-3.74,3.04-3.39,5.42l4.87,32.94c.84,5.75-3.13,11.11-8.88,11.95-.52.08-1.04.12-1.56.12-5.13,0-9.63-3.76-10.41-8.99l-6.79-45.88c-.09-.56-.13-1.12-.13-1.66v-.42c0-.14.01-.27.03-.42v.04Z"/>
</svg>