<?xml version="1.0" encoding="UTF-8"?>
<svg id="Layer_1" data-name="Layer 1" xmlns="http://www.w3.org/2000/svg" viewBox="0 0 981.93 179.52">
  <defs>
    <style>
      .cls-1 {
        fill: #2d2dd0;
      }

      .cls-2 {
        fill: #25d8b5;
      }
    </style>
  </defs>
  <path class="cls-1" d="M122.39,0H9.88C4.43,0,0,4.43,0,9.88v56.25C0,70.71,2.97,74.77,7.33,76.16l60.74,19.35.22.06s.05.01.08.03c.08.03.16.05.23.08.09.04.18.06.27.1.12.04.23.09.34.14.1.04.19.08.29.13.13.06.26.12.39.19.52.26,1.01.57,1.47.91.05.04.12.08.17.13.09.06.17.13.26.21.1.08.21.18.31.27.03.03.05.05.08.08.08.06.14.13.22.21.04.03.08.06.12.12.09.09.18.18.27.29.09.09.18.19.26.29.35.39.65.8.93,1.25.06.09.12.18.17.27s.1.18.16.27c.06.12.13.23.19.36.06.12.12.25.18.36.06.12.12.25.17.36h0c.05.13.1.26.14.38.05.13.09.26.14.39.04.13.08.26.12.39.04.13.08.26.1.4.03.1.05.22.08.32,0,.04.01.08.03.13.03.12.05.23.06.36.03.12.04.22.05.34,0,.06.01.12.03.18,0,.09.03.17.03.26,0,.13.01.27.03.42v.42c0,.55-.04,1.1-.13,1.66l-6.79,45.88c-.78,5.23-5.27,8.99-10.41,8.99-.52,0-1.04-.04-1.56-.12-5.75-.86-9.72-6.2-8.88-11.95l4.87-32.94c.35-2.4-1.08-4.7-3.39-5.42l-40.22-12.81c-4.53-1.44-9.15,1.93-9.15,6.68v63.41c0,5.81,4.71,10.53,10.53,10.53h112.51c5.45,0,9.88-4.43,9.88-9.88v-58.32c0-4.58-2.97-8.64-7.33-10.03l-60.74-19.34-.22-.06s-.06-.03-.1-.04c-.08-.03-.14-.05-.22-.06-.09-.03-.18-.06-.27-.1-.12-.04-.23-.09-.34-.14-.1-.04-.19-.08-.29-.13-.26-.12-.51-.25-.74-.38-.13-.06-.26-.14-.38-.22-.14-.09-.29-.18-.43-.29-.12-.08-.25-.17-.36-.26s-.23-.18-.34-.27c-.01,0-.03-.03-.05-.04-.09-.08-.18-.16-.27-.23-.03-.03-.05-.05-.08-.08-.1-.09-.21-.18-.3-.29-.12-.1-.22-.22-.32-.32-.09-.1-.18-.19-.27-.3-.39-.44-.73-.92-1.04-1.41-.06-.1-.12-.21-.18-.31-.01-.03-.03-.05-.05-.08-.06-.1-.12-.22-.17-.32-.06-.12-.12-.23-.17-.35,0-.01-.01-.04-.03-.05-.05-.12-.1-.22-.14-.34-.05-.13-.1-.25-.16-.38h0c-.05-.13-.09-.25-.13-.38-.04-.13-.08-.26-.12-.39-.08-.25-.13-.49-.18-.75,0-.03-.01-.05-.01-.08-.01-.08-.04-.17-.05-.26-.01-.08-.03-.16-.04-.23,0-.06-.03-.14-.03-.21,0-.05-.01-.1-.01-.17-.01-.1-.03-.19-.03-.29,0-.13-.03-.27-.03-.4v-.4c0-.29,0-.57.03-.86.01-.25.05-.49.08-.74,0-.03,0-.06.01-.09l6.79-45.87c.84-5.75,6.2-9.72,11.95-8.88,5.75.86,9.73,6.2,8.88,11.95l-4.87,32.94c-.35,2.4,1.08,4.7,3.39,5.42l40.22,12.81c4.53,1.44,9.15-1.93,9.15-6.68V10.53c0-5.81-4.71-10.53-10.53-10.53h-.01Z"/>
  <path class="cls-2" d="M211.3,104.73c0-.09.01-.17.03-.26l.03-.18c0-.12.03-.22.05-.34.01-.12.04-.25.06-.36,0-.04.01-.08.03-.13.03-.1.05-.22.08-.32.03-.13.06-.27.1-.4s.08-.26.12-.39c.04-.13.08-.26.14-.39.04-.13.09-.25.14-.36h0c.05-.14.1-.26.17-.38.05-.13.12-.25.18-.36.06-.12.12-.25.19-.36.05-.09.1-.18.16-.27s.1-.18.17-.27c.27-.44.58-.86.93-1.25.08-.1.17-.19.26-.29.09-.1.18-.19.27-.29l.12-.12c.08-.08.14-.14.22-.21.03-.03.05-.05.08-.08.1-.09.21-.18.31-.27.08-.08.17-.14.26-.21.05-.05.1-.09.17-.13.45-.34.95-.65,1.47-.91.13-.06.26-.13.39-.19.09-.05.19-.09.29-.13.12-.05.22-.09.34-.14.09-.04.18-.06.27-.1.08-.03.16-.05.23-.08.03,0,.05-.03.08-.03l.22-.06,60.74-19.35c4.37-1.39,7.33-5.45,7.33-10.03V9.88c0-5.45-4.43-9.88-9.88-9.88h-112.51c-5.81,0-10.53,4.71-10.53,10.53v61.34c0,4.75,4.62,8.14,9.15,6.68l40.22-12.81c2.31-.74,3.74-3.04,3.39-5.42l-4.87-32.94c-.86-5.75,3.13-11.11,8.88-11.95s11.11,3.13,11.95,8.88l6.79,45.87s0,.06.01.09c.04.25.06.49.08.74.03.29.04.57.03.86v.4c0,.14-.01.27-.03.4,0,.1-.01.19-.03.29,0,.05,0,.1-.01.17,0,.06-.01.14-.03.21-.01.08-.03.16-.04.23,0,.08-.03.17-.05.26,0,.03,0,.05-.01.08-.05.25-.1.51-.18.75-.04.13-.08.26-.12.39s-.08.25-.13.38h0c-.05.13-.09.25-.16.38-.04.12-.09.23-.14.34,0,.01-.01.04-.03.05-.05.12-.1.23-.17.35-.05.1-.12.22-.17.32-.01.03-.03.05-.05.08-.05.1-.12.21-.18.31-.3.49-.65.97-1.04,1.41-.08.1-.18.21-.27.3-.1.12-.21.22-.32.32-.09.1-.19.19-.3.29-.03.03-.05.05-.08.08-.09.08-.18.16-.27.23-.01.01-.03.03-.05.04l-.35.27c-.12.09-.23.18-.36.26-.14.1-.29.19-.43.29-.13.08-.25.16-.38.22-.25.14-.49.26-.74.38-.09.05-.19.09-.29.13-.12.05-.22.09-.34.14-.09.04-.18.06-.27.1-.06.03-.14.05-.22.06-.03.01-.06.03-.1.04l-.22.06-60.74,19.34c-4.37,1.39-7.33,5.45-7.33,10.03v58.32c0,5.45,4.43,9.88,9.88,9.88h112.51c5.81,0,10.53-4.71,10.53-10.53v-63.41c0-4.75-4.62-8.14-9.15-6.68l-40.22,12.81c-2.31.74-3.74,3.04-3.39,5.42l4.87,32.94c.84,5.75-3.13,11.11-8.88,11.95-.52.08-1.04.12-1.56.12-5.13,0-9.63-3.76-10.41-8.99l-6.79-45.88c-.09-.56-.13-1.12-.13-1.66v-.42c0-.14.01-.27.03-.42v.04Z"/>
  <g>
    <path class="cls-1" d="M316.84,73.98h14.74c.26,1.75,1.05,3.29,2.39,4.63,1.34,1.34,3.13,2.37,5.36,3.09,2.24.72,4.85,1.08,7.83,1.08,4.27,0,7.63-.59,10.07-1.77,2.44-1.18,3.67-2.86,3.67-5.02,0-1.65-.71-2.92-2.12-3.82-1.42-.9-4.05-1.56-7.91-1.97l-11.19-1.16c-7.77-.77-13.39-2.57-16.86-5.4-3.47-2.83-5.21-6.69-5.21-11.58,0-3.86,1.14-7.15,3.43-9.88,2.29-2.73,5.5-4.81,9.65-6.25,4.14-1.44,8.99-2.16,14.55-2.16s10.37.8,14.58,2.39c4.22,1.6,7.59,3.81,10.11,6.64,2.52,2.83,3.88,6.12,4.09,9.88h-14.74c-.21-1.54-.91-2.87-2.12-3.97-1.21-1.11-2.83-1.98-4.86-2.62-2.03-.64-4.49-.96-7.37-.96-3.86,0-6.93.55-9.22,1.66-2.29,1.11-3.43,2.69-3.43,4.75,0,1.54.68,2.75,2.04,3.63,1.36.88,3.79,1.52,7.29,1.93l11.81,1.31c5.4.57,9.72,1.47,12.96,2.7,3.24,1.23,5.58,2.93,7.02,5.09,1.44,2.16,2.16,4.89,2.16,8.18,0,3.96-1.2,7.42-3.59,10.38-2.39,2.96-5.74,5.26-10.03,6.91-4.3,1.65-9.3,2.47-15.01,2.47s-11.1-.85-15.55-2.55c-4.45-1.7-7.95-4.05-10.49-7.06-2.55-3.01-3.9-6.52-4.05-10.53Z"/>
    <path class="cls-1" d="M396.32,89.42l-19.06-40.51h15.74l17.13,40.51h-13.81ZM394.63,106.86c-3.09,0-5.83-.39-8.22-1.16-2.39-.77-4.72-1.93-6.98-3.47v-10.11c2.31,1.49,4.49,2.56,6.52,3.2,2.03.64,4.26.96,6.67.96,2.16,0,4.05-.46,5.67-1.39,1.62-.93,2.97-2.62,4.05-5.09l17.59-40.9h15.2l-21.53,45.37c-1.44,3.09-3.16,5.56-5.17,7.41s-4.18,3.18-6.52,3.97c-2.34.8-4.77,1.2-7.29,1.2Z"/>
    <path class="cls-1" d="M437.84,48.9h14.28l2.85,17.13v26.85h-14.35v-29.01l-2.78-14.97ZM471.4,47.67c4.22,0,7.81.85,10.76,2.55,2.96,1.7,5.22,4.08,6.79,7.14,1.57,3.06,2.35,6.73,2.35,11v24.54h-14.35v-22.38c0-3.65-.9-6.42-2.7-8.3-1.8-1.88-4.37-2.82-7.72-2.82-2.37,0-4.42.5-6.17,1.5-1.75,1-3.09,2.42-4.01,4.24-.93,1.83-1.39,4-1.39,6.52l-4.55-2.39c.57-4.68,1.84-8.62,3.82-11.81,1.98-3.19,4.45-5.62,7.41-7.29,2.96-1.67,6.21-2.51,9.76-2.51Z"/>
    <path class="cls-1" d="M551.35,74.68c-.41,3.81-1.84,7.18-4.28,10.11-2.44,2.93-5.58,5.22-9.41,6.87-3.83,1.65-8.14,2.47-12.92,2.47-5.3,0-9.98-.98-14.04-2.93-4.06-1.95-7.23-4.68-9.49-8.18-2.26-3.5-3.4-7.54-3.4-12.11s1.13-8.6,3.4-12.08c2.26-3.47,5.43-6.2,9.49-8.18,4.06-1.98,8.74-2.97,14.04-2.97,4.78,0,9.09.82,12.92,2.47,3.83,1.65,6.97,3.92,9.41,6.83,2.44,2.91,3.87,6.32,4.28,10.22h-14.28c-.57-2.83-1.97-5-4.21-6.52-2.24-1.52-4.95-2.28-8.14-2.28-2.52,0-4.72.49-6.6,1.47-1.88.98-3.33,2.41-4.36,4.28-1.03,1.88-1.54,4.13-1.54,6.75s.51,4.86,1.54,6.71c1.03,1.85,2.48,3.27,4.36,4.24,1.88.98,4.08,1.47,6.6,1.47,3.24,0,5.97-.78,8.18-2.35,2.21-1.57,3.6-3.67,4.17-6.29h14.28Z"/>
    <path class="cls-1" d="M557.98,33.47h14.28v59.42h-14.28v-59.42ZM588.77,47.67c4.17,0,7.73.85,10.69,2.55,2.96,1.7,5.22,4.08,6.79,7.14,1.57,3.06,2.35,6.73,2.35,11v24.54h-14.35v-22.38c0-3.65-.89-6.42-2.66-8.3-1.77-1.88-4.36-2.82-7.75-2.82-2.37,0-4.41.5-6.13,1.5-1.72,1-3.06,2.42-4.01,4.24-.95,1.83-1.43,4-1.43,6.52l-4.55-2.39c.62-4.68,1.9-8.62,3.86-11.81,1.96-3.19,4.41-5.62,7.37-7.29,2.96-1.67,6.24-2.51,9.84-2.51Z"/>
    <path class="cls-1" d="M615.01,48.9h14.51l2.62,15.82v28.17h-14.35v-29.4l-2.78-14.58ZM653.13,48.29v12.35c-1.39-.31-2.77-.54-4.13-.69-1.36-.15-2.61-.23-3.74-.23-2.47,0-4.7.5-6.68,1.5-1.98,1-3.55,2.58-4.71,4.75-1.16,2.16-1.74,4.96-1.74,8.41l-2.86-3.55c.36-3.14.95-6.1,1.77-8.87.82-2.78,1.96-5.23,3.4-7.37,1.44-2.13,3.23-3.82,5.36-5.05,2.13-1.23,4.72-1.85,7.75-1.85.87,0,1.8.05,2.78.15.98.1,1.9.26,2.78.46Z"/>
    <path class="cls-1" d="M683.22,94.12c-5.56,0-10.42-.98-14.58-2.93s-7.41-4.68-9.72-8.18c-2.31-3.5-3.47-7.54-3.47-12.11s1.16-8.68,3.47-12.15c2.32-3.47,5.56-6.19,9.72-8.14,4.17-1.95,9.03-2.93,14.58-2.93s10.42.98,14.58,2.93c4.17,1.96,7.42,4.67,9.76,8.14,2.34,3.47,3.51,7.55,3.51,12.23s-1.17,8.6-3.51,12.08c-2.34,3.47-5.59,6.19-9.76,8.14s-9.03,2.93-14.58,2.93ZM683.3,83.32c2.78,0,5.16-.5,7.14-1.5,1.98-1,3.5-2.43,4.55-4.28,1.05-1.85,1.58-4.06,1.58-6.64s-.53-4.8-1.58-6.67c-1.05-1.88-2.57-3.32-4.55-4.32-1.98-1-4.36-1.5-7.14-1.5s-5.17.5-7.18,1.5-3.55,2.44-4.63,4.32c-1.08,1.88-1.62,4.1-1.62,6.67s.54,4.78,1.62,6.64,2.62,3.28,4.63,4.28c2.01,1,4.4,1.5,7.18,1.5Z"/>
    <path class="cls-1" d="M715.86,48.9h14.28l2.86,17.13v26.85h-14.35v-29.01l-2.78-14.97ZM749.43,47.67c4.22,0,7.81.85,10.76,2.55,2.96,1.7,5.22,4.08,6.79,7.14,1.57,3.06,2.35,6.73,2.35,11v24.54h-14.35v-22.38c0-3.65-.9-6.42-2.7-8.3-1.8-1.88-4.37-2.82-7.72-2.82-2.37,0-4.42.5-6.17,1.5-1.75,1-3.09,2.42-4.01,4.24-.93,1.83-1.39,4-1.39,6.52l-4.55-2.39c.57-4.68,1.84-8.62,3.82-11.81,1.98-3.19,4.45-5.62,7.41-7.29,2.96-1.67,6.21-2.51,9.76-2.51Z"/>
    <path class="cls-1" d="M785.16,44.27c-2.52,0-4.58-.66-6.17-1.97-1.59-1.31-2.39-3.05-2.39-5.21s.8-3.96,2.39-5.25c1.59-1.29,3.65-1.93,6.17-1.93s4.63.64,6.17,1.93c1.54,1.29,2.32,3.04,2.32,5.25s-.77,3.9-2.32,5.21c-1.54,1.31-3.6,1.97-6.17,1.97ZM777.98,48.29l7.1,1.47,7.18-1.47v44.6h-14.28v-44.6Z"/>
    <path class="cls-1" d="M852.91,74.68c-.41,3.81-1.84,7.18-4.28,10.11-2.44,2.93-5.58,5.22-9.41,6.87-3.83,1.65-8.14,2.47-12.92,2.47-5.3,0-9.98-.98-14.04-2.93-4.06-1.95-7.23-4.68-9.49-8.18-2.26-3.5-3.39-7.54-3.39-12.11s1.13-8.6,3.39-12.08c2.26-3.47,5.43-6.2,9.49-8.18,4.06-1.98,8.74-2.97,14.04-2.97,4.78,0,9.09.82,12.92,2.47,3.83,1.65,6.97,3.92,9.41,6.83,2.44,2.91,3.87,6.32,4.28,10.22h-14.28c-.57-2.83-1.97-5-4.21-6.52-2.24-1.52-4.95-2.28-8.14-2.28-2.52,0-4.72.49-6.6,1.47-1.88.98-3.33,2.41-4.36,4.28-1.03,1.88-1.54,4.13-1.54,6.75s.51,4.86,1.54,6.71c1.03,1.85,2.48,3.27,4.36,4.24,1.88.98,4.08,1.47,6.6,1.47,3.24,0,5.97-.78,8.18-2.35,2.21-1.57,3.6-3.67,4.17-6.29h14.28Z"/>
    <path class="cls-1" d="M866.72,44.27c-2.52,0-4.58-.66-6.17-1.97-1.59-1.31-2.39-3.05-2.39-5.21s.8-3.96,2.39-5.25c1.59-1.29,3.65-1.93,6.17-1.93s4.63.64,6.17,1.93c1.54,1.29,2.32,3.04,2.32,5.25s-.77,3.9-2.32,5.21c-1.54,1.31-3.6,1.97-6.17,1.97ZM859.55,48.29l7.1,1.47,7.18-1.47v44.6h-14.28v-44.6Z"/>
    <path class="cls-1" d="M878.84,59.55v-6.25l9.11-3.32,6.1-12.81h8.26v11.73h18.98v10.65h-18.98v14.51c0,3.29.67,5.59,2.01,6.91,1.34,1.31,3.73,1.97,7.18,1.97,2.16,0,4.09-.19,5.79-.58,1.7-.39,3.29-.91,4.78-1.58v10.88c-1.54.62-3.56,1.18-6.06,1.7-2.5.51-5.08.77-7.75.77-4.68,0-8.53-.75-11.54-2.24-3.01-1.49-5.22-3.59-6.64-6.29-1.42-2.7-2.12-5.88-2.12-9.53v-16.51h-9.11Z"/>
    <path class="cls-1" d="M943.12,89.42l-19.06-40.51h15.74l17.13,40.51h-13.81ZM941.42,106.86c-3.09,0-5.83-.39-8.22-1.16-2.39-.77-4.72-1.93-6.98-3.47v-10.11c2.31,1.49,4.49,2.56,6.52,3.2,2.03.64,4.26.96,6.67.96,2.16,0,4.05-.46,5.67-1.39,1.62-.93,2.97-2.62,4.05-5.09l17.59-40.9h15.2l-21.53,45.37c-1.44,3.09-3.16,5.56-5.17,7.41-2.01,1.85-4.18,3.18-6.52,3.97-2.34.8-4.77,1.2-7.29,1.2Z"/>
  </g>
  <g>
    <path class="cls-1" d="M325.68,149.6c-1.98,0-3.76-.41-5.35-1.22-1.58-.82-2.75-1.9-3.49-3.25l3.21-2.55c1.37,2.12,3.3,3.18,5.77,3.18,1.19,0,2.15-.29,2.9-.86.75-.57,1.12-1.31,1.12-2.22,0-1.65-1.18-2.91-3.53-3.77l-2.73-.98c-2-.72-3.48-1.65-4.44-2.78-.96-1.13-1.43-2.53-1.43-4.21,0-2.12.76-3.81,2.27-5.08,1.51-1.27,3.45-1.9,5.8-1.9,3.14,0,5.65,1.13,7.51,3.39l-2.83,2.76c-1.28-1.54-2.85-2.31-4.72-2.31-1.1,0-2.02.26-2.78.77-.76.51-1.14,1.21-1.14,2.1s.29,1.54.86,2.04c.57.5,1.54,1.01,2.92,1.52l2.52.94c1.91.72,3.37,1.67,4.37,2.83,1,1.16,1.49,2.64,1.47,4.44,0,2.14-.77,3.87-2.31,5.19-1.54,1.32-3.53,1.97-5.97,1.97Z"/>
    <path class="cls-1" d="M345.84,149.53c-2.66,0-4.84-.85-6.55-2.55-1.71-1.7-2.57-3.88-2.57-6.53s.86-4.75,2.59-6.48c1.72-1.74,3.9-2.6,6.53-2.6,2.42,0,4.43.77,6.03,2.31,1.6,1.54,2.39,3.66,2.39,6.36,0,.47-.01.89-.03,1.26h-13.73c.09,1.42.64,2.57,1.64,3.44,1,.87,2.25,1.31,3.74,1.31,2.24,0,3.9-.89,5-2.66l2.93,2.1c-1.68,2.7-4.33,4.05-7.97,4.05ZM340.67,138.49h9.71c-.21-1.21-.75-2.16-1.62-2.85-.87-.69-1.89-1.03-3.06-1.03s-2.29.34-3.23,1.01c-.94.68-1.54,1.63-1.8,2.87Z"/>
    <path class="cls-1" d="M365.37,149.53c-2.38,0-4.37-.89-5.99-2.66-1.62-1.77-2.43-3.91-2.43-6.43s.81-4.66,2.43-6.43c1.62-1.77,3.62-2.66,5.99-2.66,1.19,0,2.28.26,3.28.79,1,.52,1.77,1.16,2.31,1.9v-2.34h3.84v17.47h-3.84v-2.34c-.54.75-1.3,1.38-2.31,1.9-1,.52-2.1.79-3.28.79ZM362.33,144.43c.98,1.07,2.22,1.61,3.74,1.61s2.76-.54,3.74-1.61c.98-1.07,1.47-2.4,1.47-3.98s-.49-2.91-1.47-3.98c-.98-1.07-2.22-1.61-3.74-1.61s-2.76.54-3.74,1.61c-.98,1.07-1.47,2.4-1.47,3.98s.49,2.91,1.47,3.98Z"/>
    <path class="cls-1" d="M385.56,149.53c-1.61,0-3.03-.31-4.26-.93-1.23-.62-2.15-1.54-2.76-2.78l2.83-2.03c.35.75.91,1.33,1.68,1.76.77.43,1.61.65,2.52.65.72,0,1.32-.16,1.8-.49.48-.33.72-.78.72-1.36,0-.51-.19-.93-.58-1.26-.38-.33-1.09-.65-2.11-.98l-1.54-.42c-3.1-.84-4.62-2.62-4.58-5.35,0-1.51.59-2.73,1.78-3.63,1.19-.91,2.68-1.36,4.47-1.36,2.7,0,4.67.99,5.9,2.97l-2.66,2.03c-.89-1.19-1.99-1.78-3.32-1.78-.63,0-1.18.15-1.64.44-.47.29-.7.69-.7,1.21,0,.47.15.86.45,1.19.3.33.85.62,1.64.87l1.78.52c1.63.49,2.85,1.15,3.67,1.97.81.83,1.22,1.94,1.22,3.34,0,1.65-.59,2.97-1.78,3.95-1.19.98-2.7,1.47-4.54,1.47Z"/>
    <path class="cls-1" d="M410.28,146.89c-1.76,1.76-3.93,2.64-6.52,2.64s-4.76-.88-6.52-2.64c-1.76-1.76-2.64-3.91-2.64-6.45s.88-4.69,2.64-6.45,3.93-2.64,6.52-2.64,4.76.88,6.52,2.64c1.76,1.76,2.64,3.91,2.64,6.45s-.88,4.69-2.64,6.45ZM403.77,145.96c1.51,0,2.77-.53,3.76-1.59s1.48-2.37,1.48-3.93-.49-2.87-1.48-3.93c-.99-1.06-2.24-1.59-3.76-1.59s-2.8.53-3.79,1.59c-.99,1.06-1.48,2.37-1.48,3.93s.49,2.87,1.48,3.93,2.25,1.59,3.79,1.59Z"/>
    <path class="cls-1" d="M416.8,149.18v-17.47h3.84v2.38c1.09-1.82,2.86-2.72,5.31-2.72,2.03,0,3.64.66,4.86,1.99,1.21,1.33,1.82,3.1,1.82,5.31v10.52h-3.84v-9.89c0-1.4-.33-2.49-.98-3.27-.65-.78-1.54-1.17-2.66-1.17-1.33,0-2.41.5-3.25,1.5-.84,1-1.26,2.41-1.26,4.23v8.59h-3.84Z"/>
    <path class="cls-1" d="M461.2,145.4v3.77h-16.42v-1.4c0-.89.13-1.73.4-2.53.27-.8.55-1.47.86-2.01.3-.54.8-1.14,1.5-1.8.7-.66,1.23-1.14,1.61-1.43.37-.29,1.03-.77,1.97-1.45s1.54-1.11,1.8-1.29c1.47-1.07,2.53-2.01,3.18-2.83.65-.82.98-1.79.98-2.93s-.35-2.06-1.05-2.74c-.7-.69-1.67-1.03-2.9-1.03s-2.34.38-3.18,1.14c-.84.76-1.27,1.79-1.29,3.09h-3.88c0-2.35.8-4.27,2.39-5.76,1.6-1.49,3.59-2.24,5.99-2.24,2.21,0,4.06.65,5.56,1.96,1.49,1.3,2.24,3.13,2.24,5.48,0,1.86-.43,3.43-1.28,4.7-.85,1.27-2.25,2.6-4.21,4-.3.23-.86.63-1.68,1.19-.82.56-1.41.99-1.8,1.29-.38.3-.8.72-1.24,1.24-.44.52-.75,1.05-.91,1.59h11.35Z"/>
  </g>
</svg>