<svg width="1440" height="373" viewBox="0 0 1440 373" fill="none" xmlns="http://www.w3.org/2000/svg">
<path d="M1440 373V143L1360.54 143.008L1325.23 178.781V117.096H1298.86V65.8603H1267.57L1238.92 94.8949V162.997L1200.2 123.769V222.666H1178.2V167.208H1155.83V137.781H1112.89V167.208H1090.49V209.535H1080.76V85.403L1019.98 123.418V163.17L994.275 137.121V96.9705H953.439V118.422H928.634V204.884H915.298V175.659H899.561V159.114H885.039V142.568H867.189V114.366H850.261V142.568H832.417V159.114H817.889V175.659H802.158V130.168C802.158 95.1031 774.107 66.681 739.504 66.681V191.687H724.578V137.638H700.793V120.504H673.317L666.238 104.44H629.658L622.585 120.504H595.103V137.638H571.318V224.807H555.47V170.515H532.466C524.906 148.67 501.198 132.291 472.442 130.4L466.802 84.7013L461.161 130.4C432.405 132.291 408.697 148.67 401.137 170.515H392.825L392.819 160.458L372.739 149.211C372.739 149.211 372.739 118.512 372.739 115.687C365.93 111.874 358.557 107.747 352.658 104.446C352.658 87.669 352.658 56.4457 352.658 44.3787C338.301 52.4194 306.152 70.4278 306.152 70.4278V213.21H294.501V131.078H286.365V113.23H276.328V89.5126H270.758L267.858 56.303H264.066L260.298 23.4026L256.529 56.303H252.738L249.838 89.5126H244.268V113.23H234.23V131.078H226.101V157.068H214.443V43.2665L171.741 0V72.0692H157.266V37.6166L107.408 88.1329V199.847H84.3286V118.22L50.6832 138.673V118.22L0 149.64V373H1440Z" fill="#131313"/>
</svg>
