<svg width="1441" height="526" viewBox="0 0 1441 526" fill="none" xmlns="http://www.w3.org/2000/svg">
<path d="M386.999 0V43.829C386.999 43.829 393.052 45.257 396.078 45.971C396.295 47.5716 396.442 49.1722 396.618 50.7847C398.034 51.469 399.444 52.1354 400.861 52.8435C401.507 64.9699 399.08 185.943 402.782 197.51C404.815 203.169 403.54 209.303 403.757 215.182C404.644 215.176 405.538 215.17 406.442 215.158C406.848 208.363 408.505 215.432 408.375 188.371C410.244 188.192 412.118 188.025 413.998 187.835C414.145 186.556 414.316 185.276 414.504 184.009C416.372 184.039 418.247 184.045 420.127 184.039C420.644 186.431 422.301 188.085 424.663 188.597C424.874 194.505 424.528 200.42 424.898 206.328C425.368 206.316 426.326 206.304 426.796 206.292C426.772 190.382 426.796 174.471 426.937 158.56C434.61 158.233 442.307 158.281 449.987 158.667C450.269 172.287 448.688 171.805 453.453 174.685C454.54 90.4367 450.692 109.144 459.071 102.028C459.623 95.8097 458.653 89.5144 459.394 83.3024C460.469 80.7498 462.149 78.4768 463.137 75.8647C463.883 77.2987 464.617 78.7446 465.375 80.1786C469.553 80.0417 473.73 80.131 477.908 80.2083C478.008 81.4043 478.108 82.6122 478.214 83.8082C478.819 83.8022 479.43 83.7963 480.041 83.7844C480.241 82.5229 480.452 81.2615 480.681 80.006C481.686 79.9882 482.708 79.9822 483.731 79.9584C484.171 87.8662 483.466 125.614 483.866 141.269C485.705 141.317 487.556 141.293 489.407 141.263C489.501 154.151 489.083 167.045 489.589 179.921C491.804 179.957 494.025 179.921 496.246 179.886C496.34 182.206 496.416 184.533 496.498 186.853C498.42 186.925 500.347 186.954 502.274 186.984C499.818 179.076 502.151 186.163 500.946 148.052C501.951 131.576 500.3 115.047 501.334 98.5944C511.91 98.4218 522.492 98.5527 533.074 98.4575C533.868 108.436 532.757 118.432 533.145 128.411C536.112 128.756 538.909 127.715 541.759 127.102C554.385 130.005 551.383 128.113 551.454 142.441C556.542 142.292 561.636 142.322 566.718 142.685C566.76 143.744 566.812 144.809 566.871 145.868C573.387 150.26 569.938 149.099 576.736 149.724C576.83 178.499 575.92 179.326 578.376 179.725C578.893 165.552 578.235 151.349 578.564 137.169C583.582 136.527 588.076 133.712 593.1 133.26C598.805 134.456 604.64 134.075 610.422 134.159C610.674 146.017 610.269 157.888 610.662 169.747C614.623 169.08 610.845 117.653 612.49 103.009C613.054 102.878 627.349 99.4214 629.047 98.2671C629.805 96.8688 630.34 95.3694 630.975 93.9056C631.732 94.9945 632.502 96.0774 633.29 97.1604C641.974 96.3809 650.658 97.0414 659.36 97.1247C659.848 116.57 659.148 136.045 659.524 155.49C661.798 155.585 664.078 155.639 666.358 155.752C666.493 157.114 666.622 158.483 666.775 159.851C672.039 159.988 677.322 160.012 682.598 159.857C682.58 155.056 682.292 150.254 682.639 145.458C686.029 145.523 689.437 145.577 692.833 145.357C692.898 141.674 692.528 137.919 693.462 134.313C694.532 130.196 694.361 125.822 695.73 121.764C697.234 118.932 697.211 121.836 703.075 107.002C704.52 103.622 703.833 99.832 704.62 96.3035C705.066 94.2924 705.437 92.2693 705.713 90.2225C706.817 91.6981 707.481 93.4356 707.329 95.3218C706.741 106.508 713.116 115.356 715.637 120.681C718.199 129.321 717.776 127.03 717.705 173.822C719.127 173.834 720.555 173.846 721.994 173.846C722.194 159.768 722.182 145.684 722.171 131.606C722.082 128.714 723.452 126.043 723.522 123.163C723.622 120.378 723.404 117.528 724.221 114.82C725.496 110.81 724.891 106.556 725.185 102.432C725.126 100.677 726.712 99.6059 727.541 98.2373C729.492 95.6371 728.728 91.9064 730.814 89.4073C733.552 86.1406 733.134 81.5471 734.204 77.626C735.685 72.8242 734.844 67.7427 734.956 62.81C735.097 62.816 735.385 62.8279 735.526 62.8338C735.003 87.7055 737.201 80.7498 732.853 87.9673C735.021 88.3958 737.218 88.7052 739.427 88.9134C740.038 91.4482 740.626 93.9889 741.296 96.5118C741.889 98.6479 744.281 100.005 744.081 102.408C744.104 104.824 744.334 107.246 745.109 109.555C751.49 108.079 758.141 108.323 764.628 108.823C768.389 114.761 773.635 119.593 779.1 123.924C779.123 124.228 779.159 173.501 779.159 173.799C781.908 173.87 784.776 173.34 787.431 174.358C791.427 175.917 795.781 174.834 799.952 175.233C801.004 173.846 802.085 172.49 803.255 171.186C805.064 172.62 807.009 174.084 809.447 173.918C809.671 125.697 806.897 117.617 819.407 115.124C819.401 113.494 819.389 111.863 819.395 110.233C820.605 109.447 821.816 108.62 823.155 108.049C824.994 109.769 823.637 112.655 824.524 114.791C825.065 116.005 825.782 117.123 826.34 118.331C827.227 120.116 827.345 122.657 829.76 122.907C830.529 121.907 830.811 120.027 832.398 120.069C843.497 119.372 836.54 120.949 849.449 122.907C849.455 126.566 849.443 130.237 849.467 133.903C852.31 134.129 855.154 134.206 858.016 134.236C858.298 144.512 857.951 154.794 858.163 165.07C859.549 165.635 860.936 166.212 862.328 166.801C862.657 171.627 862.522 176.464 862.698 181.302C863.492 181.296 864.297 181.29 865.108 181.29C868.674 165.635 868.527 168.199 885.114 168.378C886.095 168.485 887.447 168.307 887.882 169.467C890.361 175.667 893.387 181.861 893.51 188.704C893.446 191.161 896.296 192.524 896.072 195.035C896.108 210.303 895.802 225.577 896.225 240.845C898.605 240.911 900.99 240.911 903.382 240.845C903.523 234.193 903.182 227.523 903.54 220.876C906.266 220.745 908.993 220.71 911.725 220.668C911.819 218.401 911.931 216.146 912.089 213.885C915.186 213.909 918.282 213.897 921.385 213.944C921.684 248.58 920.48 249.247 923.165 249.532C923.717 238.864 923.271 167.569 923.282 167.497C925.051 164.302 929.105 165.647 932.008 164.903C938.982 162.6 945.992 163.939 948.107 165.397C949.74 166.307 950.651 168.015 951.585 169.586C958.754 169.122 965.922 169.943 973.096 169.782C974.154 173.525 973.678 193.291 973.654 193.857C978.284 193.625 982.92 193.845 987.556 193.678C987.915 191.358 988.308 189.043 988.872 186.764C991.211 189.614 990.758 193.88 993.426 196.51C997.022 201.318 995.688 193.607 996.105 238.043C1000.13 238.489 1003.68 236.103 1007.68 236.192C1008.04 225.125 1007.12 184.247 1007.63 166.682C1011.74 166.426 1015.86 166.641 1019.95 167.146C1021.33 165.409 1022.66 163.618 1023.91 161.773C1026.44 163.481 1029.41 164.213 1032.45 164.124C1032.66 165.058 1032.88 165.992 1033.12 166.932C1036.22 166.968 1039.33 167.122 1042.43 167.414C1042.79 171.419 1042.75 175.441 1042.6 179.451C1047.57 179.481 1051.87 182.498 1056.82 182.843C1057.76 184.188 1059.03 185.247 1060.51 185.955C1061.25 191.042 1060.85 196.171 1060.87 201.288C1066.99 201.003 1073.11 200.539 1079.25 200.931C1079.59 191.173 1079.02 146.464 1079.42 123.948C1083.56 123.77 1087.72 123.823 1091.88 123.799C1091.83 119.551 1092.35 115.326 1092.25 111.09C1096.77 110.911 1101.3 111.06 1105.83 110.995C1107.54 105.157 1105.68 106.157 1112.78 105.294C1112.89 93.8104 1112.37 82.2552 1113.57 70.819C1115.12 74.1392 1114.69 93.7807 1114.77 105.044C1117.27 105.383 1119.33 106.817 1121.1 108.561C1122.7 110.173 1125.43 110.399 1126.8 112.071C1127.41 116.701 1126.98 179.267 1127.09 246.867C1129.92 246.944 1132.76 246.944 1135.59 246.873C1135.7 239.744 1135.29 191.203 1135.95 184.134C1138.32 184.045 1140.7 183.914 1143.07 183.712C1143.21 179.517 1142.39 175.114 1144.14 171.157C1148.18 171.103 1152.23 171.091 1156.29 171.264C1156.76 175.292 1156.68 179.35 1156.48 183.396C1161.69 186.841 1160.36 181.153 1160.44 208.036C1164.73 207.929 1169.04 207.792 1173.34 208.131C1173.86 213.213 1173.36 218.306 1173.5 223.387C1175.77 224.149 1178.16 224.488 1180.45 225.16C1180.45 228.433 1180.25 231.706 1180.45 234.984C1183.36 235.044 1186.26 235.038 1189.17 235.091C1189.1 230.516 1188.7 182.998 1189.48 178.392C1193.97 178.547 1198.52 178.136 1202.99 178.755C1206.64 179.755 1210.24 181.028 1214.07 181.147C1214.13 182.504 1214.19 183.866 1214.29 185.235C1216.32 185.181 1218.36 185.122 1220.42 185.062C1220.42 182.849 1220.41 180.629 1220.44 178.422C1223.42 177.946 1226.43 177.97 1229.43 178.261C1229.59 179.261 1229.78 180.26 1229.99 181.26C1232.78 181.29 1235.58 181.302 1238.39 181.302C1238.5 179.844 1238.6 178.374 1238.7 176.911C1241.75 176.911 1244.82 176.815 1247.87 176.786C1247.87 176.786 1248.35 224.661 1248.08 248.289C1249.07 248.259 1250.06 248.241 1251.07 248.223C1251.51 238.822 1250.93 146.939 1251.17 143.964C1254.42 143.744 1257.68 143.774 1260.94 143.899C1260.76 136.646 1260.69 92.7096 1260.99 86.9618C1266.6 86.5572 1272.22 86.8249 1277.83 87.0272C1277.97 84.5639 1277.87 82.0886 1277.89 79.6252C1277.78 77.7688 1279.43 76.4062 1279.54 74.6033C1279.16 66.5586 1279.28 58.508 1279.06 50.4515C1279.24 48.238 1278.48 45.4831 1280.35 43.823C1288.01 35.8676 1283.58 40.5623 1285.07 5.87282C1285.83 5.2897 1286.6 4.70064 1287.38 4.11752C1287.57 15.5359 1286.98 26.9721 1287.45 38.3846C1287.11 42.0261 1291.86 43.3173 1291.77 46.8398C1291.84 55.89 1291.93 64.964 1291.37 74.0023C1291.07 76.4538 1294.29 77.2868 1294.22 79.6252C1294.31 83.6594 1293.97 87.6817 1294.01 91.7219C1295.23 91.5851 1296.48 91.4423 1297.73 91.3113C1297.8 88.6576 1297.56 85.98 1298 83.3619C1299.04 81.0949 1301.75 80.7438 1303.77 79.7799C1306.93 78.7684 1308.86 75.591 1318.14 77.3463C1325.17 79.893 1318.88 75.0912 1321.09 215.224C1328.54 215.176 1336 215.069 1343.44 215.432C1343.69 224.881 1343.24 234.336 1343.51 243.79C1344.24 243.904 1344.97 244.028 1345.72 244.147C1345.57 239.328 1345.59 234.496 1345.59 229.671C1346.12 229.683 1347.15 229.706 1347.66 229.712C1347.69 234.865 1347.52 240.006 1347.71 245.153C1358.43 245.706 1352.72 245.224 1360.87 243.273C1361.84 227.689 1359.23 164.409 1362.56 162.815C1365.62 162.368 1368.74 162.559 1371.83 162.356C1372.02 161.547 1372.22 160.726 1372.45 159.917C1374.79 159.72 1376.86 158.638 1378.42 156.847C1379.3 157.787 1380.19 158.727 1381.11 159.661C1394.39 158.721 1394.3 160.732 1400.14 158.334C1401.75 158.965 1403.4 159.518 1405.08 160.012C1405.53 160.863 1405.97 161.726 1406.55 162.523C1408.29 163.041 1408.53 160.827 1409.29 159.744C1409.8 159.709 1410.33 159.673 1410.87 159.637C1411.09 160.476 1411.33 161.327 1411.57 162.166C1412.85 162.321 1414.14 162.481 1415.44 162.642C1415.76 168.021 1415.63 211.433 1415.52 218.026C1416.46 218.02 1417.4 218.002 1418.36 217.985C1418.77 214.313 1417.18 209.72 1420.24 206.887C1422.32 204.49 1425.98 203.311 1426.7 199.872C1427 196.088 1427.36 192.078 1425.93 188.478C1426.67 187.561 1427.48 186.681 1428.08 185.639C1428.49 183.247 1427.93 180.719 1428.69 178.404C1430.39 176.583 1432.89 175.976 1434.95 174.691C1436.3 170.169 1434.11 165.445 1435.32 160.863C1436.06 157.686 1433.74 155.133 1432.72 152.342C1433.42 150.301 1434.32 148.022 1436.16 146.779C1438.55 146.727 1439.58 195.425 1439.89 258C1440.18 317.462 1439.99 469.928 1440 525.5H0V134.194C1.06349 135.134 2.09761 136.205 3.46076 136.699C4.55951 136.235 5.55837 135.575 6.58073 134.974C7.30931 136.003 8.00851 137.062 8.80173 138.044C11.0462 137.717 12.3859 135.497 14.0781 134.176C16.5811 136.943 19.7657 138.823 23.0032 140.561C23.8786 142.649 23.4204 145.083 23.7141 147.314C24.7541 147.053 25.9234 146.832 26.3641 145.696C28.7672 141.096 31.7168 136.473 31.6815 131.064C31.9635 131.279 32.5335 131.707 32.8214 131.921C33.597 137.08 35.8709 141.793 38.3621 146.309C49.3907 166.641 45.2837 157.204 46.2943 166.51C47.1991 166.706 48.104 166.89 49.0029 167.069C49.4436 172.371 49.2203 202.675 49.144 207.822C50.3485 208.012 51.553 208.202 52.7575 208.399C53.2569 209.178 53.4567 210.237 54.2793 210.755C56.8704 210.981 59.4792 210.874 62.0763 210.922C62.1291 208.72 62.0586 206.513 62.2525 204.311C62.4758 201.913 63.6098 199.694 63.6392 197.272C63.8918 192.75 62.8636 187.966 64.9201 183.735C65.5135 181.724 67.57 180.992 69.2328 180.136C68.2046 166.004 75.1496 159.482 77.3765 159.958C81.2838 160.464 84.4566 163.41 86.4367 166.73C87.9056 169.419 90.532 171.097 92.3417 173.501C92.9469 176.197 92.7413 178.999 93.0409 181.736C96.0963 181.343 98.8343 179.469 101.972 179.719C109.364 179.636 116.773 179.892 124.147 179.422C124.605 174.066 123.165 168.116 126.027 163.279C127.061 162.719 128.213 162.464 129.317 162.107C129.746 150.23 131.08 160.202 131.203 143.732C132.079 143.024 132.954 142.328 133.83 141.632C133.589 137.407 136.268 133.492 134.893 129.291H136.679C135.34 133.492 137.954 137.425 137.725 141.644C138.583 142.352 139.453 143.048 140.316 143.756C140.328 147.231 139.782 150.849 141.004 154.199C141.732 156.263 141.756 158.495 142.414 160.577C143.372 162.553 144.588 164.403 145.205 166.533C146.656 170.544 145.534 174.876 146.169 179.011C148.09 182.426 147.314 181.064 163.243 181.04C163.273 161.571 163.061 142.108 163.337 122.651C164.659 122.52 165.981 122.401 167.303 122.27C167.45 121.003 167.603 119.741 167.75 118.48C169.912 117.903 172.08 117.337 174.289 116.963C174.566 116.165 174.83 115.368 175.1 114.577C176.358 113.738 178.238 113.22 178.538 111.512C180.8 103.682 182.95 108.46 187.786 108.198C192.339 108.061 197.005 108.989 201.411 107.43C204.39 106.484 205.325 110.334 205.636 112.53C207.857 112.678 210.096 112.75 212.334 112.774C214.226 115.16 213.85 118.248 213.809 121.098C215.213 121.098 216.612 121.098 218.01 121.086C218.216 120.188 218.41 119.301 218.609 118.402C222.288 118.617 226.054 118.045 229.691 118.67C231.653 120.069 233.616 121.604 236.172 121.485C235.761 139.532 235.731 212.499 236.025 220.989C237.253 221.162 238.499 221.329 239.744 221.489C240.132 222.132 240.52 222.774 240.914 223.417C244.151 224.363 247.371 225.851 250.832 225.166C250.785 199.7 251.102 174.239 250.796 148.772C253.117 147.451 255.362 145.993 257.495 144.375C259.78 146.315 262.483 147.594 265.051 149.093C265.597 150.046 265.268 187.841 265.262 188.412C269.122 188.15 272.989 188.287 276.861 188.329C276.919 190.739 276.661 193.196 277.125 195.582C277.907 196.832 279.528 197.7 279.446 199.349C279.605 202.306 279.464 205.275 279.646 208.226C284.17 208.423 288.694 208.512 293.219 208.458C293.107 194.648 293.295 180.838 293.107 167.033C295.827 166.98 298.56 166.968 301.286 166.974C301.48 163.172 301.062 159.363 301.245 155.561C302.279 155.353 303.319 155.139 304.371 154.925C303.419 89.9607 305.293 126.995 306.01 96.012C311.357 93.8521 317.673 93.6141 322.914 96.1964C323.596 100.159 323.026 104.205 323.273 108.204C323.372 110.161 324.512 111.869 324.665 113.821C324.918 117.879 324.589 121.943 324.753 126.007C324.835 129.137 326.345 132.011 326.398 135.158C326.657 141.906 326.322 148.659 326.486 155.407C327.55 155.371 328.613 155.335 329.683 155.282C329.777 152.11 329.836 148.933 329.818 145.767C331.598 145.66 333.379 145.565 335.159 145.464C335.276 143.792 335.218 142.078 335.611 140.442C339.06 133.629 337.856 150.313 338.014 74.4902C340.118 73.7881 342.127 72.8242 344.278 72.2589C345.811 72.2113 347.286 72.8658 348.837 72.7647C352.974 72.122 357.11 73.2704 361.264 72.7944C361.423 74.27 361.617 75.7338 361.858 77.1975C362.522 76.2396 363.139 75.2518 363.715 74.2344C365.889 74.1808 368.068 74.2046 370.26 74.1689L369.999 52C371.368 51.4407 373.086 50.3801 374.473 49.8505C374.696 48.5534 374.914 47.2563 375.172 45.977C378.145 45.3463 381.077 44.543 384.033 43.829V0H386.999Z" fill="#005962"/>
</svg>
