<svg width="1440" height="572" viewBox="0 0 1440 572" fill="none" xmlns="http://www.w3.org/2000/svg">
<path d="M1085.01 30.0527V35.915H1087.34V57.4834H1089.82V85.7588H1092.77V122.506H1097.27V80.1025H1105.33V90.7812H1113.7L1124.56 105.232V143.553H1132.24V124.319L1141.31 115.125V67.0645L1158.69 76.335V115.595H1162.8V65.7324L1171.25 57.1719H1179.78V74.1348H1184.43V84.6553H1191.72V38.7959L1202.42 27.9521H1216.92V86.4629L1232.75 102.48V141.358H1236.7V92.3535H1249.73V62.1943H1265.24V54.1855H1276.25V120.312H1280.91V82.2969H1284.01V77.7432H1286.49V70.5205H1294.78V76.0947L1298.27 79.627V86.0693H1301.84V129.576H1306.19V111.199L1320.3 96.9062H1333.8V141.358H1336.39V90.3525L1352.48 106.646V136.57L1354.89 134.13V107.274L1358.77 103.349V81.6748H1375.83V88.2695H1379.7V121.567H1382.96V95.8096L1400.02 88.3457H1409.25L1413.05 92.1953V104.839H1417.47V69.2646H1419.1V64.2012H1420.84V59.249H1422.47V55.1309H1420.38L1429.57 33.4561L1437.95 55.6816H1436.16V59.2139H1437.17V63.4502H1438.17V69.5762H1440V129V571.5H0V70.0752L18.2048 88.5098V122.125H21.224V92.4824H25.4475V77.8135L32.3891 65.2871H43.8552V39.4707H45.5125V25.1064H47.0245V39.5176H49.5849V63.1514L52.4012 66.0029V90.8516H60.0488V119.777H65.4784V23.0176L93.0342 50.9297V75.7783H97.4606V118.968H101.082V78.835H106.517L113.151 85.5586V104.71H115.967V66.0029H122.207V59.2783L127.231 54.1855H145.841V61.626L150.163 66.0029V111.839H155.801V101.448H162.238V83.5225H174.706V47.415H181.521V36.4131H182.552V3.25684H183.861V36.2607H191.405V47.8721H200.154V82.707H205.89V94.0137H211.018V116.322H214.036V67.4287H230.027V89.7305H235.155V110.513H238.626V43.29L245.115 24.0391H261.107L269.102 43.29V91.7197H272.875L277.295 101.448V108.371H282.927V80.2607H306.265V113.67H309.486V104.71H315.721V53.3701H339.859V96.4551H351.024V121.203H356.152V63.7617H370.335V45.7305H385.724V63.7617H389.044V105.016H400.812V123.04H405.036V101.958H412.88V64.3721H417.307V0L434.203 17.1152V66.0029H441.445V101.853H449.087V118.152H453.716V89.4258L463.572 79.4453H482.078V107.562H489.321V97.376H506.622V124.261H512.253V108.782H523.916V58.2578H552.887V86.7793H559.724V97.7803H563.351V116.116H568.577V104.3H581.451V69.2588H597.547V95.7451H610.415V80.2607H618.063V117.748H622.085V110.003H632.948V71.3008H636.975V60.7041H647.833V70.4854H658.697V105.931H663.123V97.7803H671.971V86.374H691.688V124.261H696.914V78.6299H704.562V53.3701H720.253V89.208H736.504L744.569 94.2373V61.5674L763.799 81.0469V137.591H769.384V70.6787H786.448V134.764H790.787V72.4043H796.06V57.0898H802.341L807.225 62.042V74.4463H815.372L822.585 81.751H832.354V122.277H836.079V46.0596H842.905V39.5762H856.549V46.4873H863.062V137.591H869.268V103.349L880.745 91.7256H895.016V129.734H899.669V85.1309H912.074V58.4277H932.856V71.7764H945.424V143.553H949.144V110.026H957.052V91.1738H978.693V133.584H982.413V80.8066H985.907V76.5645H988.931V68.7959H997.767V76.0947H1002.66V113.559H1007.31V86.3447H1026.74L1033.13 92.8232V135.232H1036.16V100.263H1055.8L1060.7 105.232V82.4551H1063.38V58.4277H1065.93V36.0439H1068.49V30.0645L1076.32 0L1085.01 30.0527Z" fill="#5AB0B9"/>
</svg>
