<svg width="24" height="24" viewBox="0 0 24 24" fill="none" xmlns="http://www.w3.org/2000/svg">
<path d="M12 0C18.6274 0 24 5.37258 24 12C24 18.6274 18.6274 24 12 24C5.37258 24 0 18.6274 0 12C0 5.37258 5.37258 0 12 0ZM6.67969 5.82012C6.47668 5.82015 6.30761 5.88809 6.17227 6.02344C6.03694 6.15881 5.96895 6.32783 5.96895 6.53086C5.9694 7.94156 6.27715 9.33498 6.8918 10.7109C7.50644 12.0869 8.37807 13.3393 9.50625 14.468C10.6344 15.5965 11.8864 16.4684 13.2627 17.083C14.6391 17.6976 16.0326 18.0047 17.4428 18.0047C17.6459 18.0047 17.8154 17.9368 17.9508 17.8014C18.086 17.666 18.1535 17.4969 18.1535 17.2939V14.5523C18.1535 14.4061 18.1027 14.2738 18.0012 14.1551C17.8996 14.0364 17.77 13.9547 17.6121 13.9096L15.2766 13.4355C15.1191 13.4135 14.9587 13.4278 14.7949 13.4783C14.6311 13.5289 14.498 13.6047 14.3965 13.7063L12.8063 15.2971C12.3776 15.0493 11.9711 14.7759 11.5875 14.4768C11.2039 14.1776 10.8374 13.8527 10.4877 13.5029C10.115 13.1415 9.7735 12.7663 9.46348 12.3773C9.15346 11.9884 8.88521 11.5854 8.65957 11.168L10.3014 9.50918C10.3916 9.41893 10.4539 9.31158 10.4877 9.1875C10.5215 9.0635 10.5272 8.91133 10.5047 8.73106L10.0646 6.36152C10.0421 6.21533 9.96842 6.08864 9.84434 5.98125C9.72024 5.87387 9.57922 5.82012 9.42129 5.82012H6.67969Z" fill="black"/>
</svg>
