<svg width="33" height="32" viewBox="0 0 33 32" fill="none" xmlns="http://www.w3.org/2000/svg">
<path d="M16.0216 0C13.9176 0 11.8342 0.416686 9.89039 1.22627C7.94656 2.03585 6.18036 3.22247 4.69262 4.71838C1.68798 7.73951 0 11.837 0 16.1096C0 23.23 4.5982 29.2711 10.9588 31.4136C11.7598 31.5425 12.0162 31.0431 12.0162 30.6082V27.8856C7.57821 28.8522 6.63294 25.727 6.63294 25.727C5.89595 23.8583 4.85454 23.3589 4.85454 23.3589C3.39658 22.3601 4.96669 22.3923 4.96669 22.3923C6.56885 22.5051 7.418 24.0516 7.418 24.0516C8.81188 26.5002 11.167 25.7753 12.0803 25.3887C12.2245 24.3415 12.641 23.6327 13.0896 23.23C9.53285 22.8272 5.79982 21.4418 5.79982 15.3041C5.79982 13.5159 6.40864 12.0822 7.45004 10.9384C7.28982 10.5357 6.72907 8.86026 7.61026 6.68547C7.61026 6.68547 8.95607 6.25051 12.0162 8.32864C13.2819 7.97423 14.6598 7.79703 16.0216 7.79703C17.3834 7.79703 18.7613 7.97423 20.027 8.32864C23.0871 6.25051 24.4329 6.68547 24.4329 6.68547C25.3141 8.86026 24.7534 10.5357 24.5931 10.9384C25.6345 12.0822 26.2434 13.5159 26.2434 15.3041C26.2434 21.4579 22.4943 22.8111 18.9215 23.2139C19.4983 23.7133 20.027 24.696 20.027 26.1941V30.6082C20.027 31.0431 20.2833 31.5586 21.1004 31.4136C27.461 29.255 32.0432 23.23 32.0432 16.1096C32.0432 13.994 31.6288 11.8992 30.8236 9.9447C30.0185 7.9902 28.8383 6.21429 27.3506 4.71838C25.8628 3.22247 24.0966 2.03585 22.1528 1.22627C20.209 0.416686 18.1256 0 16.0216 0Z" fill="black"/>
</svg>
