<svg width="24" height="24" viewBox="0 0 24 24" fill="none" xmlns="http://www.w3.org/2000/svg">
<path d="M12 0C18.6274 0 24 5.37258 24 12C24 18.6274 18.6274 24 12 24C5.37258 24 0 18.6274 0 12C0 5.37258 5.37258 0 12 0ZM12 4.8C10.4821 4.8 9.02621 5.41013 7.95293 6.4957C6.87983 7.58122 6.27718 9.05341 6.27715 10.5885C6.27715 14.9308 11.4432 19.3435 11.4721 19.3682C11.7632 19.6344 12.2389 19.6373 12.5279 19.3682C12.5568 19.3435 17.7229 14.9308 17.7229 10.5885C17.7228 9.05341 17.1202 7.58122 16.0471 6.4957C14.9738 5.41013 13.5179 4.8 12 4.8ZM12 8.05606C12.3288 8.05606 12.6543 8.1216 12.958 8.24883C13.2618 8.3761 13.5382 8.56269 13.7707 8.79785C14.0031 9.03297 14.1875 9.31216 14.3133 9.61934C14.4391 9.92656 14.5037 10.2559 14.5037 10.5885C14.5037 10.921 14.4391 11.2504 14.3133 11.5576C14.1875 11.8648 14.0031 12.144 13.7707 12.3791C13.5382 12.6143 13.2618 12.8009 12.958 12.9281C12.6543 13.0554 12.3288 13.1209 12 13.1209C11.3359 13.1209 10.6989 12.854 10.2293 12.3791C9.75988 11.9042 9.49629 11.26 9.49629 10.5885C9.49632 9.91691 9.75983 9.27275 10.2293 8.79785C10.6989 8.32291 11.3359 8.05606 12 8.05606Z" fill="black"/>
</svg>
