<svg width="24" height="24" viewBox="0 0 24 24" fill="none" xmlns="http://www.w3.org/2000/svg">
<path d="M12 0C18.6274 0 24 5.37258 24 12C24 18.6274 18.6274 24 12 24C5.37258 24 0 18.6274 0 12C0 5.37258 5.37258 0 12 0ZM5.94434 6.27715C5.52865 6.27771 5.17223 6.42241 4.87559 6.71133C4.57906 7.00024 4.43089 7.34772 4.43086 7.75371V16.6154C4.43138 17.022 4.57942 17.37 4.87559 17.659C5.17173 17.9479 5.52815 18.0925 5.94434 18.0926H18.0557C18.4723 18.093 18.8289 17.9484 19.125 17.659C19.4212 17.3695 19.5691 17.0216 19.5691 16.6154V7.75371C19.5696 7.34817 19.4216 7.00075 19.125 6.71133C18.8284 6.42192 18.4719 6.27721 18.0557 6.27715H5.94434ZM17.0713 8.34434C17.2983 8.20898 17.5195 8.2031 17.734 8.32617C17.9483 8.44923 18.0556 8.63387 18.0557 8.87988C18.0557 8.99114 18.03 9.09309 17.9795 9.18516C17.929 9.2771 17.8535 9.35395 17.7527 9.41543L12.3973 12.6832C12.3348 12.7196 12.2688 12.7471 12.1992 12.7658C12.1296 12.7845 12.0631 12.7939 12 12.7939C11.9375 12.7944 11.8715 12.7851 11.802 12.7664C11.7324 12.7477 11.6658 12.7201 11.6027 12.6832L6.24727 9.41543C6.14638 9.36669 6.07096 9.29585 6.02051 9.20332C5.97005 9.11077 5.94434 9.00295 5.94434 8.87988C5.94437 8.64663 6.05167 8.465 6.26602 8.33555C6.48046 8.20608 6.70165 8.20898 6.92871 8.34434L12 11.4463L17.0713 8.34434Z" fill="black"/>
</svg>
